<svg width="80" height="80" viewBox="0 0 80 80" fill="none" xmlns="http://www.w3.org/2000/svg">
<path d="M49 16.3027C48.1 16.3027 47.5 15.7027 47.5 14.8027V10.3027C47.5 9.40273 48.1 8.80273 49 8.80273C49.9 8.80273 50.5 9.40273 50.5 10.3027V14.8027C50.5 15.7027 49.9 16.3027 49 16.3027ZM58.3 15.7027C58 15.7027 57.7 15.7027 57.7 15.4027C57.1 15.1027 56.8 14.2027 57.1 13.3027L58.6 10.6027C58.9 10.0027 59.8 9.70273 60.7 10.0027C61.3 10.3027 61.6 11.2027 61.3 12.1027L59.8 14.8027C59.5 15.4027 58.9 15.7027 58.3 15.7027ZM65.8 23.2027C65.2 23.2027 64.9 22.9027 64.6 22.3027C64.3 21.7027 64.3 20.8027 65.2 20.2027L67.6 19.0027C68.2 18.7027 69.1 18.7027 69.7 19.6027C70 20.2027 70 21.1027 69.1 21.7027L66.7 23.2027H65.8ZM68.5 44.2027C68.2 44.2027 67.9 44.2027 67.9 43.9027L65.2 42.4027C64.6 42.1027 64.3 41.2027 64.6 40.3027C64.9 39.7027 65.8 39.4027 66.7 39.7027L69.4 41.2027C70 41.5027 70.3 42.4027 70 43.3027C69.4 43.9027 69.1 44.2027 68.5 44.2027ZM71.5 32.8027H65.5C64.6 32.8027 64 32.2027 64 31.3027C64 30.4027 64.6 29.8027 65.5 29.8027H71.5C72.4 29.8027 73 30.4027 73 31.3027C73 32.2027 72.4 32.8027 71.5 32.8027ZM61 37.3027H52C51.7 37.3027 51.1 37.0027 50.8 36.7027C50.5 36.4027 50.5 35.8027 50.5 35.5027L52.9 23.5027C53.2 22.6027 53.8 22.3027 54.7 22.3027C55.6 22.6027 56.2 23.2027 55.9 24.1027L54.1 34.3027H61C61.9 34.3027 62.5 34.9027 62.5 35.8027C62.5 36.7027 61.9 37.3027 61 37.3027Z" fill="#00A2D1"/>
<path d="M57.9915 40.3033C57.0915 40.3033 56.4915 39.7033 56.4915 38.8033V29.8033C56.4915 28.9033 57.0915 28.3033 57.9915 28.3033C58.8915 28.3033 59.4915 28.9033 59.4915 29.8033V38.8033C59.4915 39.7033 58.8915 40.3033 57.9915 40.3033ZM45.9915 40.3033H36.9915C36.3915 40.3033 35.7915 40.0033 35.4915 39.4033C35.1915 38.8033 35.4915 38.2033 35.7915 37.9033L43.5915 30.4033C44.1915 29.8033 44.4915 29.2033 44.4915 28.3033C44.4915 26.8033 42.9915 25.3033 41.4915 25.3033C39.9915 25.3033 38.4915 26.8033 38.4915 28.3033C38.4915 29.2033 37.8915 29.8033 36.9915 29.8033C36.0915 29.8033 35.4915 29.2033 35.4915 28.3033C35.4915 25.0033 38.1915 22.3033 41.4915 22.3033C44.7915 22.3033 47.4915 25.0033 47.4915 28.3033C47.4915 29.8033 46.8914 31.3033 45.6915 32.5033L40.5915 37.3033H45.9915C46.8915 37.3033 47.4915 37.9033 47.4915 38.8033C47.4915 39.7033 46.8915 40.3033 45.9915 40.3033ZM39.3915 16.0033C38.7915 16.0033 38.4915 15.7033 38.1915 15.1033L36.6915 12.7033C36.3915 12.1033 36.3915 11.2033 37.2915 10.6033C37.8915 10.3033 38.7915 10.3033 39.3915 11.2033L40.8914 13.6033C41.1914 14.2033 41.1915 15.1033 40.2915 15.7033C39.6915 16.0033 39.3915 16.0033 39.3915 16.0033Z" fill="#00A2D1"/>
<path d="M52.298 72.7017C51.098 72.7017 50.198 72.7017 48.998 72.4017C41.798 70.6017 35.498 67.0017 30.398 61.9017L18.098 49.6018C12.998 44.5018 9.39797 37.9018 7.59797 31.0018C6.39797 26.5018 7.89797 21.4018 11.198 18.1018L16.898 12.4018C18.698 10.6018 21.398 10.6018 23.198 12.4018L29.798 19.0018C31.298 20.5018 31.598 22.9018 30.398 24.7018L26.198 31.0018C24.998 32.8018 25.298 35.2018 26.798 36.7018L43.298 53.2017C44.798 54.7017 47.198 55.0018 48.998 53.8018L55.598 49.3018C57.398 48.1017 59.798 48.4017 61.298 49.9017L67.898 56.5017C69.698 58.3018 69.698 61.0018 67.898 62.8018L62.198 68.5017C59.198 71.2017 55.898 72.7017 52.298 72.7017ZM19.898 13.6018C19.598 13.6018 18.998 13.6018 18.698 13.9018L12.998 19.9018C10.298 22.6018 9.39797 26.2018 10.298 29.8018C11.798 36.4018 15.398 42.4017 20.198 46.9017L32.498 59.2017C37.298 64.0017 43.298 67.3018 49.598 69.1017C53.198 70.0017 57.098 68.8017 59.498 66.4017L65.198 60.7017C65.798 60.1017 65.798 59.2018 65.198 58.6017L58.598 52.0018C57.998 51.4017 57.398 51.4017 56.798 51.7017L50.198 56.2017C47.198 58.3017 43.298 57.7018 40.598 55.3018L24.098 38.8018C21.698 36.4018 21.098 32.2018 23.198 29.2018L27.698 22.6018C27.998 22.0018 27.998 21.1018 27.398 20.8018L21.098 13.9018C20.798 13.9018 20.498 13.6018 19.898 13.6018ZM64.898 48.7017C64.598 48.7017 63.998 48.7017 63.698 48.4017C63.098 47.8017 63.098 46.9018 63.698 46.3018C67.598 42.4018 69.698 37.0018 69.698 31.6018C69.698 19.9018 60.398 10.6018 48.698 10.6018C42.998 10.6018 37.898 12.7018 33.998 16.6018L33.698 16.9018C33.098 17.5018 32.198 17.2018 31.598 16.6018C30.998 16.0018 30.998 15.1018 31.598 14.5018C36.698 10.0018 42.698 7.30176 48.998 7.30176C62.198 7.30176 72.998 18.1018 72.998 31.3018C72.998 37.6018 70.598 43.6018 66.098 48.1018C65.798 48.7018 65.198 48.7017 64.898 48.7017Z" fill="#00A2D1"/>
<path d="M25.2984 30.402C24.9984 30.402 24.3984 30.402 24.0984 30.102L13.5984 19.302C12.9984 18.702 12.9984 17.802 13.5984 17.202C14.1984 16.602 15.0984 16.602 15.6984 17.202L26.4984 27.702C27.0984 28.302 27.0984 29.202 26.4984 29.802C26.1984 30.102 25.5984 30.402 25.2984 30.402ZM61.2984 66.4019C60.9984 66.4019 60.3984 66.4019 60.0984 66.1019L49.5984 55.6019C48.9984 55.0019 48.9984 54.1019 49.5984 53.5019C50.1984 52.9019 51.0984 52.9019 51.6984 53.5019L62.1984 64.0019C62.7984 64.6019 62.7984 65.5019 62.1984 66.1019C62.1984 66.4019 61.5984 66.4019 61.2984 66.4019Z" fill="#00A2D1"/>
</svg>
