<svg width="160" height="38" viewBox="0 0 160 38" fill="none" xmlns="http://www.w3.org/2000/svg">
<g clip-path="url(#clip0_268_75)">
<path d="M132.189 1.27441H139.73L153.564 24.5072H153.948L153.564 17.8279V1.27441H160V35.9303H153.18L138.577 11.3904H138.193L138.577 18.0699V35.9303H132.189V1.27441Z" fill="#0346AD"/>
<path d="M122.175 1.27441H128.66V35.9303H122.175V1.27441Z" fill="#0346AD"/>
<path d="M81.6753 12.2986H88.736L92.6268 27.1579H92.963L97.6222 12.2986H104.107L108.814 27.1579H109.15L112.993 12.2986H119.958L112.416 36.0155H105.644L100.937 21.0593H100.6L95.893 36.0155H89.2164L81.6753 12.2986Z" fill="#0346AD"/>
<path d="M52.75 24.9284C53.4642 16.4779 60.8412 10.2108 69.2274 10.9303C77.6134 11.6499 83.8329 19.0836 83.1188 27.5341C82.8403 30.8298 81.5441 33.7996 79.5709 36.1476C79.427 36.3152 79.2773 36.4806 79.1221 36.6442L74.5656 32.3984C75.8808 30.9649 76.748 29.1013 76.9253 27.0027C77.348 21.9991 73.6653 17.5975 68.7 17.1714C63.7345 16.7454 59.3666 20.4562 58.9436 25.4598C58.7188 28.1219 59.6523 30.6099 61.3311 32.4279L59.0559 34.5612L56.818 36.6591C54.991 34.798 53.9425 32.6123 53.3674 30.7527C53.0605 29.7503 52.8528 28.7064 52.7561 27.6346C52.7531 27.588 52.7504 27.5425 52.7481 27.4986L52.7451 27.5C52.6766 26.6576 52.6766 25.7984 52.75 24.9284Z" fill="url(#paint0_linear_268_75)"/>
<path d="M64.1593 27.5071L67.9363 30.0091L71.8386 27.7097L73.1659 26.9275L74.4701 27.7488L81.8902 32.4221C81.2793 33.8189 80.3773 35.3352 79.0757 36.6929L73.0782 32.9158L69.1418 35.2357L67.7798 36.0384L66.4613 35.1649L62.7739 32.7224L56.8615 36.703C55.549 35.3785 54.6349 33.8856 54.0068 32.4618L61.3497 27.5178L62.7509 26.5742L64.1593 27.5071Z" fill="#0346AD"/>
<path d="M37.73 12.2133H43.6382V15.5046H44.0223C44.3105 14.9238 44.6948 14.3914 45.1752 13.9073C45.6556 13.4233 46.1839 13.0038 46.7602 12.6489C47.3686 12.2939 48.0092 12.0197 48.6815 11.8261C49.386 11.6325 50.0745 11.5356 50.7471 11.5356C51.5796 11.5356 52.2841 11.6163 52.8605 11.7777C53.469 11.939 53.9813 12.1487 54.3976 12.4069L52.7163 18.1667C52.332 17.9731 51.8998 17.8279 51.4194 17.7311C50.9712 17.602 50.4107 17.5375 49.7384 17.5375C48.8737 17.5375 48.0893 17.715 47.3848 18.0699C46.6803 18.3926 46.0719 18.8605 45.5595 19.4736C45.0791 20.0866 44.6948 20.8126 44.4066 21.6516C44.1505 22.4583 44.0223 23.3457 44.0223 24.3138V35.9303H37.73V12.2133Z" fill="#0346AD"/>
<path d="M18.0124 16.9083H34.872C34.9681 17.2955 35.0482 17.7634 35.1121 18.3119C35.1762 18.8605 35.2082 19.409 35.2082 19.9576C35.2082 22.1841 34.872 24.2814 34.1995 26.2499C33.5271 28.2182 32.4703 29.9767 31.0293 31.5256C29.4923 33.1714 27.6511 34.4459 25.5056 35.3494C23.3602 36.2529 20.9103 36.7046 18.1565 36.7046C15.6588 36.7046 13.3052 36.2529 11.0956 35.3494C8.88613 34.4459 6.96479 33.1875 5.33167 31.5741C3.69855 29.9606 2.40166 28.0568 1.44099 25.8626C0.480331 23.6361 0 21.216 0 18.6023C0 15.9886 0.480331 13.5847 1.44099 11.3904C2.40166 9.16394 3.69855 7.24401 5.33167 5.6306C6.96479 4.0172 8.88613 2.75876 11.0956 1.85525C13.3052 0.951753 15.6588 0.5 18.1565 0.5C20.9425 0.5 23.4241 0.98402 25.6017 1.95206C27.8111 2.92009 29.7004 4.25922 31.2696 5.96942L26.8024 10.374C25.6816 9.18009 24.4328 8.27658 23.056 7.66349C21.679 7.01812 20.0299 6.69545 18.1085 6.69545C16.5394 6.69545 15.0504 6.98585 13.6414 7.56668C12.2324 8.11523 10.9996 8.90581 9.94285 9.93838C8.88613 10.9709 8.03754 12.2294 7.3971 13.7137C6.78868 15.1658 6.48447 16.7953 6.48447 18.6023C6.48447 20.4093 6.78868 22.0549 7.3971 23.5393C8.03754 24.9913 8.88613 26.2336 9.94285 27.2663C11.0316 28.2989 12.2805 29.1056 13.6894 29.6863C15.0984 30.235 16.6034 30.5091 18.2045 30.5091C20.0299 30.5091 21.5669 30.2511 22.8157 29.7348C24.0966 29.1861 25.1854 28.4925 26.0819 27.6534C26.7225 27.0727 27.2668 26.3467 27.715 25.4754C28.1954 24.5719 28.5637 23.5715 28.8198 22.4746H18.0124V16.9083Z" fill="#0346AD"/>
</g>
<defs>
<linearGradient id="paint0_linear_268_75" x1="68.3334" y1="10.8797" x2="67.604" y2="38.5278" gradientUnits="userSpaceOnUse">
<stop offset="0.3" stop-color="#0346AD"/>
<stop offset="1" stop-color="#A9A9A9"/>
</linearGradient>
<clipPath id="clip0_268_75">
<rect width="160" height="37" fill="white" transform="translate(0 0.5)"/>
</clipPath>
</defs>
</svg>
