<svg width="80" height="80" viewBox="0 0 80 80" fill="none" xmlns="http://www.w3.org/2000/svg">
<path d="M68.7961 38.4012H65.5961C65.1717 38.4012 64.7648 38.2326 64.4647 37.9325C64.1647 37.6325 63.9961 37.2255 63.9961 36.8012C63.9961 36.3768 64.1647 35.9699 64.4647 35.6698C64.7648 35.3697 65.1717 35.2012 65.5961 35.2012H68.7961C69.2204 35.2012 69.6274 35.3697 69.9275 35.6698C70.2275 35.9699 70.3961 36.3768 70.3961 36.8012C70.3961 37.2255 70.2275 37.6325 69.9275 37.9325C69.6274 38.2326 69.2204 38.4012 68.7961 38.4012Z" fill="#00A2D1"/>
<path d="M39.996 17.6039V65.6039H33.372C32.5809 65.6087 31.8161 65.3203 31.2252 64.7944C30.6342 64.2684 30.259 63.5422 30.172 62.7559C29.7905 58.0834 28.2628 53.5771 25.724 49.6359H25.596C22.4149 46.1329 20.6573 41.5678 20.668 36.8359C20.6637 34.3011 21.1615 31.7904 22.1324 29.4489C23.1034 27.1074 24.5285 24.9813 26.3254 23.1933C28.1223 21.4053 30.2554 19.9909 32.6018 19.0316C34.9481 18.0722 37.4612 17.587 39.996 17.6039Z" fill="white"/>
<path d="M46.6158 67.1998H33.3678C32.1891 67.1995 31.0518 66.7656 30.1725 65.9807C29.2932 65.1958 28.7334 64.1149 28.5998 62.9438C28.2603 58.5744 26.8539 54.355 24.5038 50.6558C21.8175 47.6661 20.055 43.9621 19.4293 39.9918C18.8037 36.0215 19.3418 31.955 20.9785 28.284C22.6152 24.6131 25.2804 21.495 28.6519 19.3068C32.0233 17.1186 35.9565 15.9541 39.9758 15.9541C43.9951 15.9541 47.9283 17.1186 51.2997 19.3068C54.6711 21.495 57.3364 24.6131 58.9731 28.284C60.6098 31.955 61.1479 36.0215 60.5223 39.9918C59.8966 43.9621 58.1341 47.6661 55.4478 50.6558C53.1141 54.3369 51.7187 58.5342 51.3838 62.8798C51.2649 64.0624 50.7115 65.1589 49.8307 65.9569C48.9499 66.755 47.8044 67.1978 46.6158 67.1998ZM26.8718 48.5118L27.0638 48.7038C29.7481 52.8792 31.3737 57.6463 31.7998 62.5918C31.8395 62.9793 32.0221 63.3382 32.312 63.5985C32.6019 63.8588 32.9782 64.0018 33.3678 63.9998H46.6158C47.0104 64.0011 47.391 63.8536 47.6816 63.5867C47.9723 63.3198 48.1516 62.9531 48.1838 62.5598C48.6018 57.6029 50.2518 52.829 52.9838 48.6718C55.2829 46.1596 56.8037 43.0343 57.362 39.6749C57.9203 36.3156 57.492 32.8664 56.129 29.7456C54.766 26.6248 52.5269 23.9665 49.6832 22.0929C46.8395 20.2193 43.5133 19.2109 40.108 19.19C36.7026 19.1692 33.3643 20.1367 30.4978 21.9753C27.6314 23.8139 25.3599 26.4446 23.9588 29.5485C22.5577 32.6523 22.0871 36.096 22.6042 39.462C23.1212 42.8279 24.6037 45.9716 26.8718 48.5118Z" fill="#00A2D1"/>
<path d="M52.7859 35.2004C52.5858 35.2457 52.3781 35.2457 52.1779 35.2004C51.9783 35.1322 51.8011 35.0104 51.6659 34.8484C51.5129 34.7047 51.3909 34.5312 51.3075 34.3386C51.2241 34.146 51.1811 33.9383 51.1811 33.7284C51.1811 33.5185 51.2241 33.3108 51.3075 33.1182C51.3909 32.9255 51.5129 32.752 51.6659 32.6084C51.8011 32.4464 51.9783 32.3246 52.1779 32.2564C52.468 32.135 52.788 32.1037 53.0961 32.1664C53.4043 32.2292 53.6864 32.3832 53.9059 32.6084C54.0597 32.7513 54.1818 32.9247 54.2644 33.1176C54.3471 33.3105 54.3885 33.5186 54.3859 33.7284C54.4335 33.9283 54.4335 34.1365 54.3859 34.3364C54.3177 34.5361 54.1959 34.7132 54.0339 34.8484C53.8653 34.9964 53.6658 35.1049 53.4498 35.1658C53.2339 35.2267 53.007 35.2385 52.7859 35.2004ZM50.4499 31.0404C50.1929 31.0445 49.9388 30.9854 49.71 30.8682C49.4813 30.751 49.2848 30.5794 49.1379 30.3684C47.5059 28.034 45.0457 26.4091 42.2579 25.8244C42.052 25.7824 41.8564 25.7003 41.6822 25.5827C41.508 25.465 41.3587 25.3143 41.2428 25.1389C41.1269 24.9636 41.0467 24.7672 41.0067 24.5608C40.9668 24.3545 40.9679 24.1423 41.0099 23.9364C41.1022 23.5246 41.3505 23.1647 41.7025 22.932C42.0545 22.6993 42.4829 22.612 42.8979 22.6884C46.4974 23.4239 49.6733 25.5221 51.7619 28.5444C51.8823 28.7158 51.9672 28.9095 52.0115 29.1142C52.0558 29.3189 52.0587 29.5304 52.0199 29.7362C51.9811 29.942 51.9015 30.1379 51.7857 30.3125C51.67 30.487 51.5204 30.6366 51.3459 30.7524C51.0858 30.9418 50.7717 31.0427 50.4499 31.0404ZM46.3859 73.6004H33.5859C33.1616 73.6004 32.7546 73.4318 32.4546 73.1318C32.1545 72.8317 31.9859 72.4247 31.9859 72.0004C31.9859 71.576 32.1545 71.1691 32.4546 70.869C32.7546 70.569 33.1616 70.4004 33.5859 70.4004H46.3859C46.8103 70.4004 47.2173 70.569 47.5173 70.869C47.8174 71.1691 47.9859 71.576 47.9859 72.0004C47.9859 72.4247 47.8174 72.8317 47.5173 73.1318C47.2173 73.4318 46.8103 73.6004 46.3859 73.6004ZM39.9859 12.8004C39.5616 12.8004 39.1546 12.6318 38.8546 12.3318C38.5545 12.0317 38.3859 11.6247 38.3859 11.2004V8.00039C38.3859 7.57604 38.5545 7.16908 38.8546 6.86902C39.1546 6.56896 39.5616 6.40039 39.9859 6.40039C40.4103 6.40039 40.8173 6.56896 41.1173 6.86902C41.4174 7.16908 41.5859 7.57604 41.5859 8.00039V11.2004C41.5859 11.6247 41.4174 12.0317 41.1173 12.3318C40.8173 12.6318 40.4103 12.8004 39.9859 12.8004ZM58.0979 20.2884C57.8881 20.291 57.68 20.2496 57.4872 20.1669C57.2943 20.0842 57.1208 19.9621 56.9779 19.8084C56.8249 19.6647 56.7029 19.4912 56.6195 19.2986C56.5361 19.106 56.4931 18.8983 56.4931 18.6884C56.4931 18.4785 56.5361 18.2708 56.6195 18.0782C56.7029 17.8855 56.8249 17.712 56.9779 17.5684L59.2179 15.3284C59.515 15.0313 59.9179 14.8645 60.3379 14.8645C60.758 14.8645 61.1609 15.0313 61.4579 15.3284C61.755 15.6254 61.9219 16.0283 61.9219 16.4484C61.9219 16.8685 61.755 17.2713 61.4579 17.5684L59.2179 19.8084C59.0751 19.9621 58.9016 20.0842 58.7087 20.1669C58.5158 20.2496 58.3078 20.291 58.0979 20.2884ZM60.3379 58.7524C60.1281 58.755 59.92 58.7136 59.7271 58.6309C59.5343 58.5482 59.3608 58.4261 59.2179 58.2724L56.9779 56.0324C56.6809 55.7354 56.514 55.3325 56.514 54.9124C56.514 54.4923 56.6809 54.0894 56.9779 53.7924C57.275 53.4953 57.6779 53.3285 58.0979 53.3285C58.518 53.3285 58.9209 53.4953 59.2179 53.7924L61.4579 56.0324C61.611 56.176 61.733 56.3495 61.8164 56.5422C61.8998 56.7348 61.9428 56.9425 61.9428 57.1524C61.9428 57.3623 61.8998 57.57 61.8164 57.7626C61.733 57.9553 61.611 58.1287 61.4579 58.2724C61.3151 58.4261 61.1416 58.5482 60.9487 58.6309C60.7558 58.7136 60.5478 58.755 60.3379 58.7524ZM19.6339 58.7524C19.4241 58.755 19.216 58.7136 19.0231 58.6309C18.8303 58.5482 18.6568 58.4261 18.5139 58.2724C18.3609 58.1287 18.2389 57.9553 18.1555 57.7626C18.0721 57.57 18.0291 57.3623 18.0291 57.1524C18.0291 56.9425 18.0721 56.7348 18.1555 56.5422C18.2389 56.3495 18.3609 56.176 18.5139 56.0324L20.7539 53.7924C21.051 53.4953 21.4539 53.3285 21.8739 53.3285C22.294 53.3285 22.6969 53.4953 22.9939 53.7924C23.291 54.0894 23.4579 54.4923 23.4579 54.9124C23.4579 55.3325 23.291 55.7354 22.9939 56.0324L20.7539 58.2724C20.6111 58.4261 20.4376 58.5482 20.2447 58.6309C20.0518 58.7136 19.8438 58.755 19.6339 58.7524ZM14.3859 38.4004H11.1859C10.7616 38.4004 10.3546 38.2318 10.0546 37.9318C9.75451 37.6317 9.58594 37.2247 9.58594 36.8004C9.58594 36.376 9.75451 35.9691 10.0546 35.669C10.3546 35.369 10.7616 35.2004 11.1859 35.2004H14.3859C14.8103 35.2004 15.2172 35.369 15.5173 35.669C15.8174 35.9691 15.9859 36.376 15.9859 36.8004C15.9859 37.2247 15.8174 37.6317 15.5173 37.9318C15.2172 38.2318 14.8103 38.4004 14.3859 38.4004ZM21.8739 20.2884C21.6641 20.291 21.456 20.2496 21.2632 20.1669C21.0703 20.0842 20.8968 19.9621 20.7539 19.8084L18.5139 17.5684C18.2169 17.2713 18.05 16.8685 18.05 16.4484C18.05 16.0283 18.2169 15.6254 18.5139 15.3284C18.811 15.0313 19.2139 14.8645 19.6339 14.8645C20.054 14.8645 20.4569 15.0313 20.7539 15.3284L22.9939 17.5684C23.147 17.712 23.269 17.8855 23.3524 18.0782C23.4358 18.2708 23.4788 18.4785 23.4788 18.6884C23.4788 18.8983 23.4358 19.106 23.3524 19.2986C23.269 19.4912 23.147 19.6647 22.9939 19.8084C22.8511 19.9621 22.6776 20.0842 22.4847 20.1669C22.2918 20.2496 22.0838 20.291 21.8739 20.2884Z" fill="#00A2D1"/>
</svg>
