<svg width="2382" height="1066" viewBox="0 0 2382 1066" fill="none" xmlns="http://www.w3.org/2000/svg">
<g clip-path="url(#clip0_300_40)">
<path d="M881.871 758.864C870.81 758.864 860.81 756.818 851.871 752.727C842.931 748.561 835.848 742.538 830.621 734.659C825.469 726.78 822.893 717.121 822.893 705.682C822.893 695.833 824.787 687.727 828.575 681.364C832.363 675 837.477 669.962 843.916 666.25C850.356 662.538 857.553 659.735 865.507 657.841C873.462 655.947 881.568 654.508 889.825 653.523C900.28 652.311 908.765 651.326 915.28 650.568C921.795 649.735 926.53 648.409 929.484 646.591C932.439 644.773 933.916 641.818 933.916 637.727V636.932C933.916 627.008 931.113 619.318 925.507 613.864C919.977 608.409 911.719 605.682 900.734 605.682C889.295 605.682 880.28 608.22 873.689 613.295C867.174 618.295 862.666 623.864 860.166 630L828.234 622.727C832.022 612.121 837.553 603.561 844.825 597.045C852.174 590.455 860.621 585.682 870.166 582.727C879.712 579.697 889.75 578.182 900.28 578.182C907.25 578.182 914.636 579.015 922.439 580.682C930.318 582.273 937.666 585.227 944.484 589.545C951.378 593.864 957.022 600.038 961.416 608.068C965.81 616.023 968.007 626.364 968.007 639.091V755H934.825V731.136H933.462C931.265 735.53 927.969 739.848 923.575 744.091C919.181 748.333 913.537 751.856 906.643 754.659C899.75 757.462 891.492 758.864 881.871 758.864ZM889.257 731.591C898.651 731.591 906.681 729.735 913.348 726.023C920.09 722.311 925.204 717.462 928.689 711.477C932.25 705.417 934.03 698.939 934.03 692.045V669.545C932.818 670.758 930.469 671.894 926.984 672.955C923.575 673.939 919.674 674.811 915.28 675.568C910.886 676.25 906.606 676.894 902.439 677.5C898.272 678.03 894.787 678.485 891.984 678.864C885.393 679.697 879.371 681.098 873.916 683.068C868.537 685.038 864.219 687.879 860.962 691.591C857.78 695.227 856.189 700.076 856.189 706.136C856.189 714.545 859.295 720.909 865.507 725.227C871.719 729.47 879.636 731.591 889.257 731.591ZM1028.49 820.455C1023.41 820.455 1018.79 820.038 1014.63 819.205C1010.46 818.447 1007.35 817.614 1005.31 816.705L1013.49 788.864C1019.7 790.53 1025.23 791.25 1030.08 791.023C1034.93 790.795 1039.21 788.977 1042.92 785.568C1046.71 782.159 1050.04 776.591 1052.92 768.864L1057.13 757.273L993.263 580.455H1029.63L1073.83 715.909H1075.65L1119.85 580.455H1156.33L1084.4 778.295C1081.07 787.386 1076.82 795.076 1071.67 801.364C1066.52 807.727 1060.38 812.5 1053.26 815.682C1046.14 818.864 1037.88 820.455 1028.49 820.455ZM1298.83 682.614V580.455H1332.92V755H1299.51V724.773H1297.69C1293.68 734.091 1287.24 741.856 1278.38 748.068C1269.59 754.205 1258.64 757.273 1245.54 757.273C1234.32 757.273 1224.4 754.811 1215.76 749.886C1207.2 744.886 1200.46 737.5 1195.54 727.727C1190.69 717.955 1188.26 705.871 1188.26 691.477V580.455H1222.24V687.386C1222.24 699.28 1225.54 708.75 1232.13 715.795C1238.72 722.841 1247.28 726.364 1257.81 726.364C1264.17 726.364 1270.5 724.773 1276.79 721.591C1283.15 718.409 1288.41 713.598 1292.58 707.159C1296.82 700.72 1298.91 692.538 1298.83 682.614ZM1574.6 597.955H1539.14C1537.78 590.379 1535.24 583.712 1531.53 577.955C1527.82 572.197 1523.27 567.311 1517.89 563.295C1512.51 559.28 1506.49 556.25 1499.83 554.205C1493.23 552.159 1486.23 551.136 1478.8 551.136C1465.39 551.136 1453.39 554.508 1442.78 561.25C1432.25 567.992 1423.92 577.879 1417.78 590.909C1411.72 603.939 1408.69 619.848 1408.69 638.636C1408.69 657.576 1411.72 673.561 1417.78 686.591C1423.92 699.621 1432.29 709.47 1442.89 716.136C1453.5 722.803 1465.43 726.136 1478.69 726.136C1486.04 726.136 1493.01 725.152 1499.6 723.182C1506.26 721.136 1512.29 718.144 1517.67 714.205C1523.04 710.265 1527.59 705.455 1531.3 699.773C1535.09 694.015 1537.7 687.424 1539.14 680L1574.6 680.114C1572.7 691.553 1569.03 702.083 1563.58 711.705C1558.2 721.25 1551.26 729.508 1542.78 736.477C1534.37 743.371 1524.75 748.712 1513.92 752.5C1503.08 756.288 1491.26 758.182 1478.46 758.182C1458.31 758.182 1440.36 753.409 1424.6 743.864C1408.84 734.242 1396.42 720.492 1387.33 702.614C1378.31 684.735 1373.8 663.409 1373.8 638.636C1373.8 613.788 1378.35 592.462 1387.44 574.659C1396.53 556.78 1408.95 543.068 1424.71 533.523C1440.47 523.902 1458.39 519.091 1478.46 519.091C1490.81 519.091 1502.33 520.871 1513.01 524.432C1523.76 527.917 1533.42 533.068 1541.98 539.886C1550.54 546.629 1557.63 554.886 1563.23 564.659C1568.84 574.356 1572.63 585.455 1574.6 597.955ZM1647.87 522.273V755H1613.89V522.273H1647.87ZM1768.8 758.523C1751.61 758.523 1736.79 754.848 1724.37 747.5C1712.02 740.076 1702.48 729.659 1695.73 716.25C1689.07 702.765 1685.73 686.97 1685.73 668.864C1685.73 650.985 1689.07 635.227 1695.73 621.591C1702.48 607.955 1711.87 597.311 1723.92 589.659C1736.04 582.008 1750.2 578.182 1766.42 578.182C1776.26 578.182 1785.81 579.811 1795.05 583.068C1804.29 586.326 1812.59 591.439 1819.94 598.409C1827.29 605.379 1833.08 614.432 1837.33 625.568C1841.57 636.629 1843.69 650.076 1843.69 665.909V677.955H1704.94V652.5H1810.39C1810.39 643.561 1808.58 635.644 1804.94 628.75C1801.3 621.78 1796.19 616.288 1789.6 612.273C1783.08 608.258 1775.43 606.25 1766.64 606.25C1757.1 606.25 1748.76 608.598 1741.64 613.295C1734.6 617.917 1729.14 623.977 1725.28 631.477C1721.49 638.902 1719.6 646.97 1719.6 655.682V675.568C1719.6 687.235 1721.64 697.159 1725.73 705.341C1729.9 713.523 1735.7 719.773 1743.12 724.091C1750.54 728.333 1759.22 730.455 1769.14 730.455C1775.58 730.455 1781.45 729.545 1786.76 727.727C1792.06 725.833 1796.64 723.03 1800.51 719.318C1804.37 715.606 1807.33 711.023 1809.37 705.568L1841.53 711.364C1838.95 720.833 1834.33 729.129 1827.67 736.25C1821.08 743.295 1812.78 748.788 1802.78 752.727C1792.86 756.591 1781.53 758.523 1768.8 758.523ZM1932.18 758.864C1921.12 758.864 1911.12 756.818 1902.18 752.727C1893.24 748.561 1886.16 742.538 1880.93 734.659C1875.78 726.78 1873.21 717.121 1873.21 705.682C1873.21 695.833 1875.1 687.727 1878.89 681.364C1882.68 675 1887.79 669.962 1894.23 666.25C1900.67 662.538 1907.87 659.735 1915.82 657.841C1923.77 655.947 1931.88 654.508 1940.14 653.523C1950.59 652.311 1959.08 651.326 1965.59 650.568C1972.11 649.735 1976.84 648.409 1979.8 646.591C1982.75 644.773 1984.23 641.818 1984.23 637.727V636.932C1984.23 627.008 1981.43 619.318 1975.82 613.864C1970.29 608.409 1962.03 605.682 1951.05 605.682C1939.61 605.682 1930.59 608.22 1924 613.295C1917.49 618.295 1912.98 623.864 1910.48 630L1878.55 622.727C1882.33 612.121 1887.87 603.561 1895.14 597.045C1902.49 590.455 1910.93 585.682 1920.48 582.727C1930.02 579.697 1940.06 578.182 1950.59 578.182C1957.56 578.182 1964.95 579.015 1972.75 580.682C1980.63 582.273 1987.98 585.227 1994.8 589.545C2001.69 593.864 2007.33 600.038 2011.73 608.068C2016.12 616.023 2018.32 626.364 2018.32 639.091V755H1985.14V731.136H1983.77C1981.58 735.53 1978.28 739.848 1973.89 744.091C1969.49 748.333 1963.85 751.856 1956.96 754.659C1950.06 757.462 1941.8 758.864 1932.18 758.864ZM1939.57 731.591C1948.96 731.591 1956.99 729.735 1963.66 726.023C1970.4 722.311 1975.52 717.462 1979 711.477C1982.56 705.417 1984.34 698.939 1984.34 692.045V669.545C1983.13 670.758 1980.78 671.894 1977.3 672.955C1973.89 673.939 1969.99 674.811 1965.59 675.568C1961.2 676.25 1956.92 676.894 1952.75 677.5C1948.58 678.03 1945.1 678.485 1942.3 678.864C1935.71 679.697 1929.68 681.098 1924.23 683.068C1918.85 685.038 1914.53 687.879 1911.27 691.591C1908.09 695.227 1906.5 700.076 1906.5 706.136C1906.5 714.545 1909.61 720.909 1915.82 725.227C1922.03 729.47 1929.95 731.591 1939.57 731.591ZM2097.55 651.364V755H2063.58V580.455H2096.19V608.864H2098.35C2102.36 599.621 2108.65 592.197 2117.21 586.591C2125.85 580.985 2136.72 578.182 2149.83 578.182C2161.72 578.182 2172.14 580.682 2181.08 585.682C2190.01 590.606 2196.95 597.955 2201.87 607.727C2206.79 617.5 2209.26 629.583 2209.26 643.977V755H2175.28V648.068C2175.28 635.417 2171.98 625.53 2165.39 618.409C2158.8 611.212 2149.75 607.614 2138.23 607.614C2130.36 607.614 2123.35 609.318 2117.21 612.727C2111.15 616.136 2106.34 621.136 2102.78 627.727C2099.29 634.242 2097.55 642.121 2097.55 651.364Z" fill="black"/>
<path d="M352.282 249.31C399.074 241.941 447 249.389 489.349 270.611C519.25 285.526 538.965 310.278 557.611 336.038C576.257 361.799 591.945 387.91 610.151 413.033C620.185 426.623 614.44 433.766 601.783 437.842C566.129 449.004 530.206 459.275 494.379 470.115C479.164 474.7 475.001 462.147 469.388 453.476C444.988 415.156 423.561 374.989 396.603 338.285C375.041 308.874 348.035 288.41 311.301 281.985C302.495 280.43 290.682 279.761 291.796 265.838C292.724 253.666 303.265 254.107 311.653 253.048C325.416 251.189 338.987 250.455 352.282 249.31Z" fill="url(#paint0_linear_300_40)"/>
<path d="M732.156 628.391C760.608 571.066 789.156 513.391 817.156 457.391C840.156 411.391 869.923 366.391 892.156 324.391C907.906 310.106 941.805 252.796 961.258 241.088C940.884 282.676 890.172 357.849 869.923 399.406C813.347 514.851 756.536 630.156 700.523 745.975C693.07 761.384 686.039 771.313 666.352 770.657C645.915 770.048 632.556 766.536 623.182 744.945C597.026 684.951 568.153 626.175 539.466 567.352C531.592 551.288 530.092 541.921 550.388 534.146C582.355 522.063 613.245 507.03 643.9 491.996C658.571 484.737 664.946 489.842 670.617 502.768C683.32 532.179 717.11 595.186 732.156 628.391Z" fill="url(#paint1_linear_300_40)"/>
<path d="M1237.36 497.709C1228.48 493.365 1220 489.398 1211.76 485.149C1180.65 469.189 1147.41 455.912 1112.64 445.553C1061.31 430.143 1008.24 422.038 953.121 422.953C910.349 423.555 867.951 429.288 827.408 439.953C768.58 455.525 712.533 476.232 656.548 497.065C634.269 505.367 612.57 514.592 589.668 521.947C577.917 525.713 566.972 531.062 555.115 534.699C511.757 548.125 467.725 559.716 420.72 562.204C364.794 565.182 311.556 558.775 264.45 533.093C235.727 517.426 214.896 496.761 203.037 470.831C202.219 469.168 202.009 467.361 202.43 465.611C206.311 469.794 210.073 474.051 214.119 478.13C241.062 505.341 277.66 519.677 319.951 526.182C361.988 532.632 403.519 529.795 444.729 521.571C490.654 512.44 533.2 496.893 574.648 479.425C622.001 459.452 668.954 438.846 718.674 422.554C739.397 415.755 760.613 410.11 782.004 404.619C836.426 390.651 891.797 386.393 948.456 390.502C987.83 393.393 1026.05 400.665 1063.29 410.946C1127.43 428.66 1183.51 456.704 1233.29 492.654C1234.9 493.912 1237.22 494.742 1237.36 497.709Z" fill="url(#paint2_linear_300_40)"/>
<path d="M140.243 422.956C90.3597 315.213 137.687 187.236 245.951 137.112C261.341 129.986 277.135 124.819 293.049 121.505C289.795 122.826 286.555 124.23 283.334 125.722C175.07 175.846 127.743 303.822 177.625 411.566C220.418 503.994 320.847 551.505 416.881 531.502C310.771 574.576 188.642 527.495 140.243 422.956Z" fill="url(#paint3_linear_300_40)"/>
<path d="M895.37 843.935V854.665H867.82V945H854.625V854.665H826.93V843.935H895.37ZM984.112 902.225C984.112 904.738 983.967 907.397 983.677 910.2H920.167C920.651 918.03 923.309 924.168 928.142 928.615C933.072 932.965 939.017 935.14 945.977 935.14C951.681 935.14 956.417 933.835 960.187 931.225C964.054 928.518 966.761 924.942 968.307 920.495H982.517C980.391 928.132 976.137 934.367 969.757 939.2C963.377 943.937 955.451 946.305 945.977 946.305C938.437 946.305 931.671 944.613 925.677 941.23C919.781 937.847 915.141 933.062 911.757 926.875C908.374 920.592 906.682 913.342 906.682 905.125C906.682 896.908 908.326 889.707 911.612 883.52C914.899 877.333 919.491 872.597 925.387 869.31C931.381 865.927 938.244 864.235 945.977 864.235C953.517 864.235 960.187 865.878 965.987 869.165C971.787 872.452 976.234 876.995 979.327 882.795C982.517 888.498 984.112 894.975 984.112 902.225ZM970.482 899.47C970.482 894.443 969.371 890.142 967.147 886.565C964.924 882.892 961.879 880.137 958.012 878.3C954.242 876.367 950.037 875.4 945.397 875.4C938.727 875.4 933.024 877.527 928.287 881.78C923.647 886.033 920.989 891.93 920.312 899.47H970.482ZM996.599 905.125C996.599 896.908 998.243 889.755 1001.53 883.665C1004.82 877.478 1009.36 872.693 1015.16 869.31C1021.06 865.927 1027.77 864.235 1035.31 864.235C1045.08 864.235 1053.1 866.603 1059.38 871.34C1065.76 876.077 1069.97 882.65 1072 891.06H1057.79C1056.44 886.227 1053.78 882.408 1049.81 879.605C1045.95 876.802 1041.11 875.4 1035.31 875.4C1027.77 875.4 1021.68 878.01 1017.04 883.23C1012.4 888.353 1010.08 895.652 1010.08 905.125C1010.08 914.695 1012.4 922.09 1017.04 927.31C1021.68 932.53 1027.77 935.14 1035.31 935.14C1041.11 935.14 1045.95 933.787 1049.81 931.08C1053.68 928.373 1056.34 924.507 1057.79 919.48H1072C1069.87 927.6 1065.62 934.125 1059.24 939.055C1052.86 943.888 1044.88 946.305 1035.31 946.305C1027.77 946.305 1021.06 944.613 1015.16 941.23C1009.36 937.847 1004.82 933.062 1001.53 926.875C998.243 920.688 996.599 913.438 996.599 905.125ZM1129.05 864.09C1135.04 864.09 1140.45 865.395 1145.29 868.005C1150.12 870.518 1153.89 874.337 1156.6 879.46C1159.4 884.583 1160.8 890.818 1160.8 898.165V945H1147.75V900.05C1147.75 892.123 1145.77 886.082 1141.81 881.925C1137.84 877.672 1132.43 875.545 1125.57 875.545C1118.61 875.545 1113.05 877.72 1108.89 882.07C1104.83 886.42 1102.8 892.752 1102.8 901.065V945H1089.61V837.7H1102.8V876.85C1105.41 872.79 1108.99 869.648 1113.53 867.425C1118.17 865.202 1123.34 864.09 1129.05 864.09ZM1221.07 864.09C1230.74 864.09 1238.57 867.038 1244.56 872.935C1250.55 878.735 1253.55 887.145 1253.55 898.165V945H1240.5V900.05C1240.5 892.123 1238.52 886.082 1234.55 881.925C1230.59 877.672 1225.18 875.545 1218.31 875.545C1211.35 875.545 1205.8 877.72 1201.64 882.07C1197.58 886.42 1195.55 892.752 1195.55 901.065V945H1182.35V865.54H1195.55V876.85C1198.16 872.79 1201.69 869.648 1206.13 867.425C1210.68 865.202 1215.66 864.09 1221.07 864.09ZM1309.76 946.305C1302.32 946.305 1295.55 944.613 1289.46 941.23C1283.47 937.847 1278.73 933.062 1275.25 926.875C1271.87 920.592 1270.17 913.342 1270.17 905.125C1270.17 897.005 1271.91 889.852 1275.39 883.665C1278.97 877.382 1283.8 872.597 1289.89 869.31C1295.98 865.927 1302.8 864.235 1310.34 864.235C1317.88 864.235 1324.69 865.927 1330.78 869.31C1336.87 872.597 1341.66 877.333 1345.14 883.52C1348.72 889.707 1350.5 896.908 1350.5 905.125C1350.5 913.342 1348.67 920.592 1344.99 926.875C1341.42 933.062 1336.54 937.847 1330.35 941.23C1324.16 944.613 1317.3 946.305 1309.76 946.305ZM1309.76 934.705C1314.5 934.705 1318.94 933.593 1323.1 931.37C1327.26 929.147 1330.59 925.812 1333.1 921.365C1335.71 916.918 1337.02 911.505 1337.02 905.125C1337.02 898.745 1335.76 893.332 1333.25 888.885C1330.74 884.438 1327.45 881.152 1323.39 879.025C1319.33 876.802 1314.93 875.69 1310.19 875.69C1305.36 875.69 1300.91 876.802 1296.85 879.025C1292.89 881.152 1289.7 884.438 1287.28 888.885C1284.87 893.332 1283.66 898.745 1283.66 905.125C1283.66 911.602 1284.82 917.063 1287.14 921.51C1289.56 925.957 1292.75 929.292 1296.71 931.515C1300.67 933.642 1305.02 934.705 1309.76 934.705ZM1381.05 837.7V945H1367.85V837.7H1381.05ZM1438.19 946.305C1430.75 946.305 1423.98 944.613 1417.89 941.23C1411.9 937.847 1407.16 933.062 1403.68 926.875C1400.3 920.592 1398.61 913.342 1398.61 905.125C1398.61 897.005 1400.35 889.852 1403.83 883.665C1407.4 877.382 1412.24 872.597 1418.33 869.31C1424.42 865.927 1431.23 864.235 1438.77 864.235C1446.31 864.235 1453.13 865.927 1459.22 869.31C1465.31 872.597 1470.09 877.333 1473.57 883.52C1477.15 889.707 1478.94 896.908 1478.94 905.125C1478.94 913.342 1477.1 920.592 1473.43 926.875C1469.85 933.062 1464.97 937.847 1458.78 941.23C1452.59 944.613 1445.73 946.305 1438.19 946.305ZM1438.19 934.705C1442.93 934.705 1447.37 933.593 1451.53 931.37C1455.69 929.147 1459.02 925.812 1461.54 921.365C1464.15 916.918 1465.45 911.505 1465.45 905.125C1465.45 898.745 1464.19 893.332 1461.68 888.885C1459.17 884.438 1455.88 881.152 1451.82 879.025C1447.76 876.802 1443.36 875.69 1438.63 875.69C1433.79 875.69 1429.35 876.802 1425.29 879.025C1421.32 881.152 1418.13 884.438 1415.72 888.885C1413.3 893.332 1412.09 898.745 1412.09 905.125C1412.09 911.602 1413.25 917.063 1415.57 921.51C1417.99 925.957 1421.18 929.292 1425.14 931.515C1429.1 933.642 1433.45 934.705 1438.19 934.705ZM1529.06 864.235C1535.92 864.235 1541.91 865.733 1547.04 868.73C1552.26 871.727 1556.12 875.497 1558.64 880.04V865.54H1571.98V946.74C1571.98 953.99 1570.43 960.418 1567.34 966.025C1564.24 971.728 1559.8 976.175 1554 979.365C1548.29 982.555 1541.62 984.15 1533.99 984.15C1523.55 984.15 1514.85 981.685 1507.89 976.755C1500.93 971.825 1496.82 965.107 1495.56 956.6H1508.61C1510.06 961.433 1513.06 965.3 1517.6 968.2C1522.14 971.197 1527.61 972.695 1533.99 972.695C1541.24 972.695 1547.13 970.423 1551.68 965.88C1556.32 961.337 1558.64 954.957 1558.64 946.74V930.065C1556.03 934.705 1552.16 938.572 1547.04 941.665C1541.91 944.758 1535.92 946.305 1529.06 946.305C1522 946.305 1515.57 944.565 1509.77 941.085C1504.07 937.605 1499.57 932.723 1496.29 926.44C1493 920.157 1491.36 913.003 1491.36 904.98C1491.36 896.86 1493 889.755 1496.29 883.665C1499.57 877.478 1504.07 872.693 1509.77 869.31C1515.57 865.927 1522 864.235 1529.06 864.235ZM1558.64 905.125C1558.64 899.132 1557.43 893.912 1555.01 889.465C1552.59 885.018 1549.31 881.635 1545.15 879.315C1541.09 876.898 1536.6 875.69 1531.67 875.69C1526.74 875.69 1522.24 876.85 1518.18 879.17C1514.12 881.49 1510.88 884.873 1508.47 889.32C1506.05 893.767 1504.84 898.987 1504.84 904.98C1504.84 911.07 1506.05 916.387 1508.47 920.93C1510.88 925.377 1514.12 928.808 1518.18 931.225C1522.24 933.545 1526.74 934.705 1531.67 934.705C1536.6 934.705 1541.09 933.545 1545.15 931.225C1549.31 928.808 1552.59 925.377 1555.01 920.93C1557.43 916.387 1558.64 911.118 1558.64 905.125ZM1601.09 852.635C1598.58 852.635 1596.45 851.765 1594.71 850.025C1592.97 848.285 1592.1 846.158 1592.1 843.645C1592.1 841.132 1592.97 839.005 1594.71 837.265C1596.45 835.525 1598.58 834.655 1601.09 834.655C1603.51 834.655 1605.54 835.525 1607.18 837.265C1608.92 839.005 1609.79 841.132 1609.79 843.645C1609.79 846.158 1608.92 848.285 1607.18 850.025C1605.54 851.765 1603.51 852.635 1601.09 852.635ZM1607.47 865.54V945H1594.27V865.54H1607.47ZM1702.46 902.225C1702.46 904.738 1702.31 907.397 1702.02 910.2H1638.51C1639 918.03 1641.65 924.168 1646.49 928.615C1651.42 932.965 1657.36 935.14 1664.32 935.14C1670.03 935.14 1674.76 933.835 1678.53 931.225C1682.4 928.518 1685.11 924.942 1686.65 920.495H1700.86C1698.74 928.132 1694.48 934.367 1688.1 939.2C1681.72 943.937 1673.8 946.305 1664.32 946.305C1656.78 946.305 1650.02 944.613 1644.02 941.23C1638.13 937.847 1633.49 933.062 1630.1 926.875C1626.72 920.592 1625.03 913.342 1625.03 905.125C1625.03 896.908 1626.67 889.707 1629.96 883.52C1633.24 877.333 1637.84 872.597 1643.73 869.31C1649.73 865.927 1656.59 864.235 1664.32 864.235C1671.86 864.235 1678.53 865.878 1684.33 869.165C1690.13 872.452 1694.58 876.995 1697.67 882.795C1700.86 888.498 1702.46 894.975 1702.46 902.225ZM1688.83 899.47C1688.83 894.443 1687.72 890.142 1685.49 886.565C1683.27 882.892 1680.22 880.137 1676.36 878.3C1672.59 876.367 1668.38 875.4 1663.74 875.4C1657.07 875.4 1651.37 877.527 1646.63 881.78C1641.99 886.033 1639.33 891.93 1638.66 899.47H1688.83ZM1748 946.305C1741.91 946.305 1736.45 945.29 1731.62 943.26C1726.79 941.133 1722.97 938.233 1720.16 934.56C1717.36 930.79 1715.81 926.488 1715.52 921.655H1729.15C1729.54 925.618 1731.38 928.857 1734.66 931.37C1738.05 933.883 1742.45 935.14 1747.86 935.14C1752.89 935.14 1756.85 934.028 1759.75 931.805C1762.65 929.582 1764.1 926.778 1764.1 923.395C1764.1 919.915 1762.55 917.353 1759.46 915.71C1756.37 913.97 1751.58 912.278 1745.1 910.635C1739.21 909.088 1734.37 907.542 1730.6 905.995C1726.93 904.352 1723.74 901.983 1721.03 898.89C1718.42 895.7 1717.12 891.543 1717.12 886.42C1717.12 882.36 1718.33 878.638 1720.74 875.255C1723.16 871.872 1726.59 869.213 1731.04 867.28C1735.49 865.25 1740.56 864.235 1746.26 864.235C1755.06 864.235 1762.17 866.458 1767.58 870.905C1772.99 875.352 1775.89 881.442 1776.28 889.175H1763.08C1762.79 885.018 1761.1 881.683 1758.01 879.17C1755.01 876.657 1750.95 875.4 1745.83 875.4C1741.09 875.4 1737.32 876.415 1734.52 878.445C1731.72 880.475 1730.31 883.133 1730.31 886.42C1730.31 889.03 1731.14 891.205 1732.78 892.945C1734.52 894.588 1736.65 895.942 1739.16 897.005C1741.77 897.972 1745.35 899.083 1749.89 900.34C1755.59 901.887 1760.23 903.433 1763.81 904.98C1767.39 906.43 1770.43 908.653 1772.94 911.65C1775.55 914.647 1776.91 918.562 1777 923.395C1777 927.745 1775.8 931.66 1773.38 935.14C1770.96 938.62 1767.53 941.375 1763.08 943.405C1758.73 945.338 1753.71 946.305 1748 946.305Z" fill="black"/>
</g>
<defs>
<linearGradient id="paint0_linear_300_40" x1="453.445" y1="474.158" x2="434.712" y2="256.505" gradientUnits="userSpaceOnUse">
<stop stop-color="#00F2FE"/>
<stop offset="1" stop-color="#4FACFE" stop-opacity="0.933333"/>
</linearGradient>
<linearGradient id="paint1_linear_300_40" x1="732.458" y1="770.687" x2="732.458" y2="274.687" gradientUnits="userSpaceOnUse">
<stop stop-color="#00F2FE"/>
<stop offset="1" stop-color="#4FACFE" stop-opacity="0.933333"/>
</linearGradient>
<linearGradient id="paint2_linear_300_40" x1="726.991" y1="380.681" x2="718.497" y2="577.186" gradientUnits="userSpaceOnUse">
<stop stop-color="#00F2FE"/>
<stop offset="1" stop-color="#4FACFE" stop-opacity="0.933333"/>
</linearGradient>
<linearGradient id="paint3_linear_300_40" x1="143.316" y1="429.588" x2="442.58" y2="291.035" gradientUnits="userSpaceOnUse">
<stop stop-color="#00F2FE"/>
<stop offset="1" stop-color="#4FACFE" stop-opacity="0.933333"/>
</linearGradient>
<clipPath id="clip0_300_40">
<rect width="2382" height="1066" fill="white"/>
</clipPath>
</defs>
</svg>
