<svg width="80" height="80" viewBox="0 0 80 80" fill="none" xmlns="http://www.w3.org/2000/svg">
<path d="M32.5 42.5L39.1667 47.5L47.5 32.5" stroke="#00A2D1" stroke-width="3.42857" stroke-linecap="round" stroke-linejoin="round"/>
<path d="M36.4564 12.5784C38.5634 11.0416 41.4213 11.0416 43.5283 12.5784L46.287 14.5908C47.317 15.3421 48.5597 15.7458 49.8343 15.7434L53.2494 15.7369C55.857 15.7319 58.1693 17.412 58.9703 19.8936L60.0194 23.1433C60.411 24.3565 61.179 25.4135 62.212 26.1608L64.9783 28.1627C67.091 29.6915 67.9744 32.4099 67.1637 34.8884L66.1024 38.1341C65.706 39.3458 65.706 40.6524 66.1024 41.8641L67.1637 45.1098C67.9744 47.5884 67.091 50.3068 64.9783 51.8354L62.212 53.8374C61.179 54.5848 60.411 55.6417 60.0194 56.8547L58.9703 60.1044C58.1693 62.5861 55.857 64.2661 53.2494 64.2614L49.8343 64.2547C48.5597 64.2524 47.317 64.6561 46.287 65.4074L43.5283 67.4198C41.4213 68.9568 38.5634 68.9568 36.4564 67.4198L33.6977 65.4074C32.6677 64.6561 31.4252 64.2524 30.1503 64.2547L26.7355 64.2614C24.1278 64.2661 21.8154 62.5861 21.0143 60.1044L19.9652 56.8547C19.5736 55.6417 18.8057 54.5848 17.7728 53.8374L15.0064 51.8354C12.8938 50.3068 12.0105 47.5884 12.8211 45.1098L13.8825 41.8641C14.2787 40.6524 14.2787 39.3458 13.8825 38.1341L12.8211 34.8884C12.0105 32.4099 12.8938 29.6915 15.0064 28.1627L17.7728 26.1608C18.8057 25.4135 19.5736 24.3565 19.9652 23.1433L21.0143 19.8936C21.8154 17.412 24.1278 15.7319 26.7355 15.7369L30.1503 15.7434C31.4252 15.7458 32.6677 15.3421 33.6977 14.5908L36.4564 12.5784Z" stroke="#00A2D1" stroke-width="3.42857" stroke-linecap="round" stroke-linejoin="round"/>
<path d="M54.1249 31.1657C56.2279 34.531 57.0609 38.5364 56.4746 42.461C55.8879 46.386 53.9203 49.9727 50.9253 52.5761C47.9303 55.1797 44.1046 56.629 40.1363 56.6637C36.1683 56.6984 32.3178 55.3161 29.2778 52.7651C26.2378 50.2144 24.2078 46.6624 23.5528 42.7484C22.8979 38.8344 23.6609 34.8154 25.7048 31.4137C27.7487 28.0122 30.9392 25.4515 34.7026 24.1923C38.4659 22.9331 42.5549 23.0581 46.2343 24.5446" stroke="#00A2D1" stroke-width="3.42857" stroke-linecap="round" stroke-linejoin="round"/>
</svg>
